<svg width="474" height="474" viewBox="0 0 474 474" fill="none" xmlns="http://www.w3.org/2000/svg">
<circle cx="237" cy="237" r="237" fill="hsla( var(--c-accent-bright), 1 )"/>
<g clip-path="url(#clip0_1928_12643)">
<path d="M388.594 323.687H419.19L419.281 202.97H388.534L388.594 323.687Z" fill="hsla( var(--c-accent-dark), 1 )"/>
<path d="M85.33 202.97H54.6276V323.687H85.33V202.97Z" fill="hsla( var(--c-accent-dark), 1 )"/>
<path d="M147.296 202.97H106.556V323.687H147.296V202.97Z" fill="hsla( var(--c-accent-dark), 1 )"/>
<path d="M474 237.008C474 106.102 367.898 0 237.008 0C106.117 0 0 106.102 0 237.008C0 281.371 12.2052 322.868 33.4012 358.377V181.743H85.33V139.882H85.4361L74.8381 125.751L95.9432 97.5958L117.048 125.751L106.45 139.882H149.767C160.562 106.041 191.037 81.3425 226.743 77.3246L208.094 52.4595L237.114 13.7517L266.133 52.4443L247.454 77.355C282.963 81.4031 313.316 105.965 324.187 139.609H367.307L356.906 125.751L378.011 97.5958L399.116 125.751L388.518 139.882V181.743H440.523L440.386 358.726C461.719 323.141 474 281.522 474 237.008V237.008Z" fill="hsla( var(--c-accent-dark), 1 )"/>
<path d="M326.689 344.913V456.428C341.017 450.56 354.632 443.343 367.398 434.913L367.368 344.913H326.689V344.913Z" fill="hsla( var(--c-accent-dark), 1 )"/>
<path d="M326.689 323.687H367.368L367.322 202.97H326.689V323.687Z" fill="hsla( var(--c-accent-dark), 1 )"/>
<path d="M367.307 160.835H326.689V181.743H367.307V160.835Z" fill="hsla( var(--c-accent-dark), 1 )"/>
<path d="M54.6276 388.367C63.9065 399.526 74.1862 409.821 85.33 419.115V344.913H54.6276V388.367Z" fill="hsla( var(--c-accent-dark), 1 )"/>
<path d="M237.038 97.9749C204.319 97.9749 175.694 120.505 168.522 151.693V463.948C190.203 470.482 213.189 474 236.992 474C260.796 474 283.781 470.467 305.463 463.948V151.405C298.17 120.384 269.575 97.9749 237.038 97.9749ZM280.158 344.928H194.085V237.341L194.282 236.34C198.451 214.856 216.479 199.27 237.144 199.27C257.809 199.27 275.731 214.796 279.961 236.174L280.158 237.189V344.913V344.928Z" fill="hsla( var(--c-accent-dark), 1 )"/>
<path d="M388.624 419.145C399.693 409.927 409.911 399.708 419.13 388.64L419.16 344.913H388.594L388.624 419.145V419.145Z" fill="hsla( var(--c-accent-dark), 1 )"/>
<path d="M147.296 161.108H106.556V181.743H147.296V161.108Z" fill="hsla( var(--c-accent-dark), 1 )"/>
<path d="M237.144 220.481C226.895 220.481 217.843 228.396 215.311 239.449V323.687H258.931V239.342C256.354 228.35 247.333 220.481 237.144 220.481Z" fill="hsla( var(--c-accent-dark), 1 )"/>
<path d="M106.556 434.898C119.323 443.328 132.953 450.56 147.296 456.428V344.913H106.556V434.898Z" fill="hsla( var(--c-accent-dark), 1 )"/>
</g>
<defs>
<clipPath id="clip0_1928_12643">
<rect width="474" height="474" fill="white"/>
</clipPath>
</defs>
</svg>
