<svg xmlns="http://www.w3.org/2000/svg" xmlns:xlink="http://www.w3.org/1999/xlink"><defs><symbol viewBox="0 0 41 41" fill="currentColor" id="arrowCircleLeft">
<path d="M19.5289 27.0282L14.188 21.6873C13.8643 21.3636 13.7025 20.9678 13.7025 20.5C13.7025 20.0322 13.8643 19.6364 14.188 19.3127L19.5833 13.9187C19.8345 13.6667 20.1401 13.5406 20.5 13.5406C20.8599 13.5406 21.1655 13.6667 21.4167 13.9187C21.705 14.2062 21.8491 14.5298 21.8491 14.8898C21.8491 15.2489 21.705 15.5544 21.4167 15.8065L18.1267 19.1509H27.0282C27.3873 19.1509 27.6928 19.2859 27.9449 19.5561C28.1969 19.8254 28.323 20.1401 28.323 20.5C28.323 20.8953 28.1969 21.219 27.9449 21.4711C27.6928 21.7231 27.3692 21.8491 26.9738 21.8491H18.1267L21.4711 25.1935C21.7231 25.4456 21.8401 25.7511 21.822 26.1102C21.8038 26.4702 21.6687 26.7762 21.4167 27.0282C21.1655 27.3156 20.8509 27.4594 20.4728 27.4594C20.0956 27.4594 19.781 27.3156 19.5289 27.0282ZM20.5 41C23.377 41 26.0563 40.4696 28.5379 39.4087C31.0195 38.3479 33.1865 36.8913 35.0389 35.0389C36.8913 33.1865 38.3479 31.0195 39.4087 28.5379C40.4696 26.0563 41 23.377 41 20.5C41 17.6584 40.4696 14.9882 39.4087 12.4893C38.3479 9.98954 36.8913 7.81347 35.0389 5.96109C33.1865 4.10872 31.0195 2.65211 28.5379 1.59127C26.0563 0.530422 23.377 0 20.5 0C17.6584 0 14.9878 0.530422 12.488 1.59127C9.98911 2.65211 7.81347 4.10872 5.9611 5.96109C4.10872 7.81347 2.65211 9.98954 1.59127 12.4893C0.530422 14.9882 -1.57046e-06 17.6584 -1.57046e-06 20.5C-1.57046e-06 23.377 0.530422 26.0563 1.59127 28.5379C2.65211 31.0195 4.10872 33.1865 5.9611 35.0389C7.81347 36.8913 9.98911 38.3479 12.488 39.4087C14.9878 40.4696 17.6584 41 20.5 41ZM20.5 38.303C15.5005 38.303 11.2834 36.5857 7.84886 33.1511C4.41428 29.7166 2.69699 25.4995 2.69699 20.5C2.69699 15.5005 4.41428 11.2834 7.84886 7.84886C11.2834 4.41428 15.5005 2.69699 20.5 2.69699C25.4995 2.69699 29.7166 4.41428 33.1511 7.84886C36.5857 11.2834 38.303 15.5005 38.303 20.5C38.303 25.4995 36.5857 29.7166 33.1511 33.1511C29.7166 36.5857 25.4995 38.303 20.5 38.303Z" />
</symbol><symbol viewBox="0 0 41 41" fill="currentColor" id="arrowCircleRight">
<path d="M21.4711 27.0282L26.812 21.6873C27.1357 21.3636 27.2975 20.9678 27.2975 20.5C27.2975 20.0322 27.1357 19.6364 26.812 19.3127L21.4167 13.9187C21.1655 13.6667 20.8599 13.5406 20.5 13.5406C20.1401 13.5406 19.8345 13.6667 19.5833 13.9187C19.295 14.2062 19.1509 14.5298 19.1509 14.8898C19.1509 15.2489 19.295 15.5544 19.5833 15.8065L22.8733 19.1509H13.9718C13.6127 19.1509 13.3072 19.2859 13.0551 19.5561C12.8031 19.8254 12.677 20.1401 12.677 20.5C12.677 20.8953 12.8031 21.219 13.0551 21.4711C13.3072 21.7231 13.6308 21.8491 14.0262 21.8491H22.8733L19.5289 25.1935C19.2769 25.4456 19.1599 25.7511 19.178 26.1102C19.1962 26.4702 19.3313 26.7762 19.5833 27.0282C19.8345 27.3156 20.1491 27.4594 20.5272 27.4594C20.9044 27.4594 21.219 27.3156 21.4711 27.0282ZM20.5 41C17.623 41 14.9437 40.4696 12.4621 39.4087C9.98047 38.3479 7.81347 36.8913 5.96109 35.0389C4.10872 33.1865 2.65211 31.0195 1.59127 28.5379C0.530422 26.0563 0 23.377 0 20.5C0 17.6584 0.530422 14.9882 1.59127 12.4893C2.65211 9.98954 4.10872 7.81347 5.96109 5.96109C7.81347 4.10872 9.98047 2.65211 12.4621 1.59127C14.9437 0.530422 17.623 0 20.5 0C23.3416 0 26.0122 0.530422 28.512 1.59127C31.0109 2.65211 33.1865 4.10872 35.0389 5.96109C36.8913 7.81347 38.3479 9.98954 39.4087 12.4893C40.4696 14.9882 41 17.6584 41 20.5C41 23.377 40.4696 26.0563 39.4087 28.5379C38.3479 31.0195 36.8913 33.1865 35.0389 35.0389C33.1865 36.8913 31.0109 38.3479 28.512 39.4087C26.0122 40.4696 23.3416 41 20.5 41ZM20.5 38.303C25.4995 38.303 29.7166 36.5857 33.1511 33.1511C36.5857 29.7166 38.303 25.4995 38.303 20.5C38.303 15.5005 36.5857 11.2834 33.1511 7.84886C29.7166 4.41428 25.4995 2.69699 20.5 2.69699C15.5005 2.69699 11.2834 4.41428 7.84886 7.84886C4.41428 11.2834 2.69699 15.5005 2.69699 20.5C2.69699 25.4995 4.41428 29.7166 7.84886 33.1511C11.2834 36.5857 15.5005 38.303 20.5 38.303Z" />
</symbol><symbol viewBox="0 0 22 23" fill="currentColor" id="arrowCircleUp">
<path d="M14.5029 10.9789L11.6371 8.11309C11.4634 7.9394 11.251 7.85256 11 7.85256C10.749 7.85256 10.5366 7.9394 10.3629 8.11309L7.46858 11.0081C7.33333 11.1429 7.26571 11.3069 7.26571 11.5C7.26571 11.6931 7.33333 11.8571 7.46858 11.9919C7.62281 12.1466 7.7965 12.2239 7.98964 12.2239C8.18232 12.2239 8.34628 12.1466 8.48153 11.9919L10.2761 10.2265L10.2761 15.0029C10.2761 15.1956 10.3486 15.3596 10.4935 15.4948C10.638 15.6301 10.8069 15.6977 11 15.6977C11.2121 15.6977 11.3858 15.6301 11.5211 15.4948C11.6563 15.3596 11.7239 15.1859 11.7239 14.9738L11.7239 10.2265L13.5185 12.0211C13.6537 12.1563 13.8177 12.2191 14.0104 12.2093C14.2035 12.1996 14.3677 12.1271 14.5029 11.9919C14.6572 11.8571 14.7343 11.6883 14.7343 11.4854C14.7343 11.283 14.6572 11.1142 14.5029 10.9789ZM22 11.5C22 13.0437 21.7154 14.4814 21.1462 15.813C20.5769 17.1446 19.7953 18.3074 18.8014 19.3014C17.8074 20.2953 16.6446 21.0769 15.313 21.6462C13.9814 22.2154 12.5437 22.5 11 22.5C9.47525 22.5 8.04244 22.2154 6.70157 21.6462C5.36024 21.0769 4.19259 20.2953 3.19864 19.3014C2.20468 18.3074 1.42308 17.1446 0.85385 15.813C0.284617 14.4814 1.12765e-07 13.0437 1.31174e-07 11.5C1.49356e-07 9.97525 0.284617 8.54221 0.85385 7.20088C1.42308 5.86001 2.20468 4.69259 3.19864 3.69864C4.19259 2.70468 5.36024 1.92308 6.70157 1.35385C8.04244 0.784617 9.47525 0.5 11 0.5C12.5437 0.5 13.9814 0.784617 15.313 1.35385C16.6446 1.92308 17.8074 2.70468 18.8014 3.69864C19.7953 4.69259 20.5769 5.86001 21.1462 7.20088C21.7154 8.54221 22 9.97525 22 11.5ZM20.5528 11.5C20.5528 8.81733 19.6314 6.55453 17.7884 4.71158C15.9455 2.86864 13.6827 1.94717 11 1.94717C8.31733 1.94717 6.05453 2.86864 4.21158 4.71158C2.36864 6.55453 1.44717 8.81733 1.44717 11.5C1.44717 14.1827 2.36864 16.4455 4.21158 18.2884C6.05453 20.1314 8.31733 21.0528 11 21.0528C13.6827 21.0528 15.9455 20.1314 17.7884 18.2884C19.6314 16.4455 20.5528 14.1827 20.5528 11.5Z" />
</symbol><symbol viewBox="0 0 48 48" id="arrowLeft"><path d="m22.35 38.95-13.9-13.9q-.25-.25-.35-.5Q8 24.3 8 24q0-.3.1-.55.1-.25.35-.5L22.4 9q.4-.4 1-.4t1.05.45q.45.45.45 1.05 0 .6-.45 1.05L13.1 22.5h24.8q.65 0 1.075.425.425.425.425 1.075 0 .65-.425 1.075-.425.425-1.075.425H13.1l11.4 11.4q.4.4.4 1t-.45 1.05q-.45.45-1.05.45-.6 0-1.05-.45Z" /></symbol><symbol viewBox="0 0 48 48" id="arrowOutward"><path d="M33 15.1 13.45 34.65q-.45.45-1.05.45-.6 0-1.05-.45-.45-.45-.45-1.075t.45-1.075L30.9 13H13.5q-.65 0-1.075-.425Q12 12.15 12 11.5q0-.65.425-1.075Q12.85 10 13.5 10h21q.65 0 1.075.425Q36 10.85 36 11.5v21q0 .65-.425 1.075Q35.15 34 34.5 34q-.65 0-1.075-.425Q33 33.15 33 32.5Z" /></symbol><symbol viewBox="0 0 48 48" id="arrowRight"><path d="M22.95 38.9q-.4-.4-.4-1.05t.4-1.05l11.3-11.3H9.5q-.65 0-1.075-.425Q8 24.65 8 24q0-.65.425-1.075Q8.85 22.5 9.5 22.5h24.75l-11.3-11.3q-.4-.4-.4-1.075 0-.675.4-1.075.4-.4 1.05-.4t1.05.4l13.9 13.9q.25.25.35.5.1.25.1.55 0 .25-.1.525t-.35.525l-13.9 13.9q-.4.4-1.05.375-.65-.025-1.05-.425Z" /></symbol><symbol viewBox="0 0 48 48" id="check"><path d="M18.9 35.1q-.3 0-.55-.1-.25-.1-.5-.35L8.8 25.6q-.45-.45-.45-1.1 0-.65.45-1.1.45-.45 1.05-.45.6 0 1.05.45l8 8 18.15-18.15q.45-.45 1.075-.45t1.075.45q.45.45.45 1.075T39.2 15.4L19.95 34.65q-.25.25-.5.35-.25.1-.55.1Z" /></symbol><symbol viewBox="0 0 48 48" id="chevronCircleDown"><path d="M22.95 29.4q.45.45 1.05.45.6 0 1.05-.45l6.55-6.55q.4-.4.4-1.025 0-.625-.45-1.075-.45-.4-1.05-.425-.6-.025-1.05.425L24 26.2l-5.5-5.5q-.4-.4-1.025-.4-.625 0-1.075.45-.45.45-.45 1.05 0 .6.45 1.05ZM24 44q-4.25 0-7.9-1.525-3.65-1.525-6.35-4.225-2.7-2.7-4.225-6.35Q4 28.25 4 24q0-4.2 1.525-7.85Q7.05 12.5 9.75 9.8q2.7-2.7 6.35-4.25Q19.75 4 24 4q4.2 0 7.85 1.55Q35.5 7.1 38.2 9.8q2.7 2.7 4.25 6.35Q44 19.8 44 24q0 4.25-1.55 7.9-1.55 3.65-4.25 6.35-2.7 2.7-6.35 4.225Q28.2 44 24 44Zm0-20Zm0 17q7.25 0 12.125-4.875T41 24q0-7.25-4.875-12.125T24 7q-7.25 0-12.125 4.875T7 24q0 7.25 4.875 12.125T24 41Z" /></symbol><symbol viewBox="0 0 48 48" id="chevronDown"><path d="M24 30.15q-.3 0-.55-.1-.25-.1-.5-.35l-9.9-9.9q-.4-.4-.375-1.075.025-.675.425-1.075.5-.5 1.075-.425.575.075 1.025.475l8.8 8.8 8.8-8.8q.4-.4 1.075-.45.675-.05 1.075.45.5.4.425 1.05-.075.65-.475 1.1l-9.85 9.85q-.25.25-.5.35-.25.1-.55.1Z" /></symbol><symbol viewBox="0 0 48 48" id="chevronLeft"><path d="m26.95 34.9-9.9-9.9q-.25-.25-.35-.5-.1-.25-.1-.55 0-.3.1-.55.1-.25.35-.5L27 12.95q.45-.45 1.075-.45t1.075.45q.45.45.425 1.1-.025.65-.475 1.1l-8.8 8.8 8.85 8.85q.45.45.45 1.05 0 .6-.45 1.05-.45.45-1.1.45-.65 0-1.1-.45Z" /></symbol><symbol viewBox="0 0 48 48" id="chevronRight"><path d="M17.7 34.9q-.4-.5-.425-1.1-.025-.6.425-1.05l8.8-8.8-8.85-8.85q-.4-.4-.375-1.075.025-.675.425-1.075.5-.5 1.075-.475.575.025 1.025.475l9.95 9.95q.25.25.35.5.1.25.1.55 0 .3-.1.55-.1.25-.35.5l-9.9 9.9q-.45.45-1.05.425-.6-.025-1.1-.425Z" /></symbol><symbol viewBox="0 0 48 48" id="chevronUp"><path d="M13.1 29.65q-.45-.45-.475-1.05-.025-.6.425-1.05l9.9-9.9q.25-.25.5-.35.25-.1.55-.1.3 0 .55.1.25.1.5.35l9.9 9.85q.45.4.45 1.025 0 .625-.45 1.075-.45.45-1.075.45T32.8 29.6L24 20.85l-8.8 8.85q-.4.45-1.025.425-.625-.025-1.075-.475Z" /></symbol><symbol viewBox="0 0 48 48" id="close"><path d="M24 26.1 13.5 36.6q-.45.45-1.05.45-.6 0-1.05-.45-.45-.45-.45-1.05 0-.6.45-1.05L21.9 24 11.4 13.5q-.45-.45-.45-1.05 0-.6.45-1.05.45-.45 1.05-.45.6 0 1.05.45L24 21.9l10.5-10.5q.45-.45 1.05-.45.6 0 1.05.45.45.45.45 1.05 0 .6-.45 1.05L26.1 24l10.5 10.5q.45.45.45 1.05 0 .6-.45 1.05-.45.45-1.05.45-.6 0-1.05-.45Z" /></symbol><symbol viewBox="0 0 34 34" fill="currentColor" id="closeCircle">
<path d="M9.61842 24.3816C9.88684 24.65 10.2 24.7842 10.5579 24.7842C10.9158 24.7842 11.2289 24.65 11.4974 24.3816L17 18.8789L22.5474 24.4263C22.786 24.6649 23.092 24.7765 23.4654 24.7609C23.8376 24.7466 24.143 24.6202 24.3816 24.3816C24.65 24.1132 24.7842 23.8 24.7842 23.4421C24.7842 23.0842 24.65 22.7711 24.3816 22.5026L18.8789 17L24.4263 11.4526C24.6649 11.214 24.7765 10.908 24.7609 10.5346C24.7466 10.1624 24.6202 9.85702 24.3816 9.61842C24.1132 9.35 23.8 9.21579 23.4421 9.21579C23.0842 9.21579 22.7711 9.35 22.5026 9.61842L17 15.1211L11.4526 9.57368C11.214 9.33509 10.9086 9.22295 10.5364 9.23726C10.163 9.25277 9.85702 9.37982 9.61842 9.61842C9.35 9.88684 9.21579 10.2 9.21579 10.5579C9.21579 10.9158 9.35 11.2289 9.61842 11.4974L15.1211 17L9.57368 22.5474C9.33509 22.786 9.22354 23.0914 9.23905 23.4636C9.25337 23.837 9.37982 24.143 9.61842 24.3816ZM17 34C14.6439 34 12.4297 33.5526 10.3575 32.6579C8.28407 31.7632 6.48684 30.5553 4.96579 29.0342C3.44474 27.5132 2.23684 25.7159 1.34211 23.6425C0.447368 21.5703 0 19.3561 0 17C0 14.6439 0.447368 12.4291 1.34211 10.3557C2.23684 8.28347 3.44474 6.48684 4.96579 4.96579C6.48684 3.44474 8.28407 2.23684 10.3575 1.34211C12.4297 0.447368 14.6439 0 17 0C19.3561 0 21.5709 0.447368 23.6443 1.34211C25.7165 2.23684 27.5132 3.44474 29.0342 4.96579C30.5553 6.48684 31.7632 8.28347 32.6579 10.3557C33.5526 12.4291 34 14.6439 34 17C34 19.3561 33.5526 21.5703 32.6579 23.6425C31.7632 25.7159 30.5553 27.5132 29.0342 29.0342C27.5132 30.5553 25.7165 31.7632 23.6443 32.6579C21.5709 33.5526 19.3561 34 17 34ZM17 31.3158C20.9667 31.3158 24.3446 29.9218 27.1338 27.1338C29.9218 24.3446 31.3158 20.9667 31.3158 17C31.3158 13.0333 29.9218 9.6554 27.1338 6.86621C24.3446 4.07821 20.9667 2.68421 17 2.68421C13.0333 2.68421 9.656 4.07821 6.868 6.86621C4.07881 9.6554 2.68421 13.0333 2.68421 17C2.68421 20.9667 4.07881 24.3446 6.868 27.1338C9.656 29.9218 13.0333 31.3158 17 31.3158Z" />
</symbol><symbol viewBox="2 5 47 47" fill="currentColor" id="crisisAlert">

<g mask="url(#crisisAlert_mask0_1332_7212)">
<path d="M7.07488 43.7864C6.31875 43.7864 5.76066 43.4623 5.4006 42.8142C5.04054 42.1661 5.04054 41.518 5.4006 40.8699L23.8717 8.89658C24.2677 8.24848 24.8438 7.92442 25.6 7.92442C26.3561 7.92442 26.9322 8.24848 27.3282 8.89658L45.7993 40.8699C46.1594 41.518 46.1594 42.1661 45.7993 42.8142C45.4393 43.4623 44.8812 43.7864 44.125 43.7864H7.07488ZM25.6 21.5347C25.1319 21.5347 24.7452 21.6874 24.4398 21.9927C24.1331 22.2995 23.9797 22.6869 23.9797 23.155V30.7162C23.9797 31.1483 24.1331 31.5264 24.4398 31.8504C24.7452 32.1745 25.1319 32.3365 25.6 32.3365C26.068 32.3365 26.4555 32.1745 26.7622 31.8504C27.0676 31.5264 27.2202 31.1483 27.2202 30.7162V23.155C27.2202 22.6869 27.0676 22.2995 26.7622 21.9927C26.4555 21.6874 26.068 21.5347 25.6 21.5347ZM25.6 37.9534C26.104 37.9534 26.5181 37.7914 26.8422 37.4673C27.1662 37.1433 27.3282 36.7292 27.3282 36.2251C27.3282 35.721 27.1662 35.307 26.8422 34.9829C26.5181 34.6589 26.104 34.4968 25.6 34.4968C25.0959 34.4968 24.6818 34.6589 24.3578 34.9829C24.0337 35.307 23.8717 35.721 23.8717 36.2251C23.8717 36.7292 24.0337 37.1433 24.3578 37.4673C24.6818 37.7914 25.0959 37.9534 25.6 37.9534ZM9.28925 40.5458H41.9107L25.6 12.4612L9.28925 40.5458Z" />
</g>
</symbol><mask id="crisisAlert_mask0_1332_7212" style="mask-type:alpha" maskUnits="userSpaceOnUse" x="0" y="0" width="49" height="49">
<rect width="48.7657" height="48.7657" />
</mask><symbol viewBox="0 0 10 10" fill="currentColor" id="diamond">
<rect x="4.94971" width="6.99996" height="6.99996" transform="rotate(45 4.94971 0)" />
</symbol><symbol viewBox="0 0 48 48" id="download"><path d="M24 31.75q-.3 0-.55-.1-.25-.1-.5-.35l-7.55-7.55q-.45-.45-.425-1.075.025-.625.475-1.075.45-.45 1.075-.45t1.075.45l4.9 4.95V9.5q0-.65.425-1.075Q23.35 8 24 8q.65 0 1.075.425.425.425.425 1.075v17.05l4.95-4.95q.45-.45 1.075-.45t1.075.45q.45.45.45 1.075t-.45 1.075l-7.55 7.55q-.25.25-.5.35-.25.1-.55.1ZM11 40q-1.2 0-2.1-.9Q8 38.2 8 37v-5.65q0-.65.425-1.075.425-.425 1.075-.425.65 0 1.075.425Q11 30.7 11 31.35V37h26v-5.65q0-.65.425-1.075.425-.425 1.075-.425.65 0 1.075.425Q40 30.7 40 31.35V37q0 1.2-.9 2.1-.9.9-2.1.9Z" /></symbol><symbol viewBox="0 0 48 48" id="email"><path d="M7 40q-1.2 0-2.1-.9Q4 38.2 4 37V11q0-1.2.9-2.1Q5.8 8 7 8h34q1.2 0 2.1.9.9.9.9 2.1v26q0 1.2-.9 2.1-.9.9-2.1.9Zm34-26.25-16.2 10.6q-.2.1-.375.175-.175.075-.425.075t-.425-.075q-.175-.075-.375-.175L7 13.75V37h34ZM24 21.9 40.8 11H7.25ZM7 13.75v.35-1.975.025V11v1.15-.05 2-.35V37Z" /></symbol><symbol fill="none" viewBox="0 0 20 17" id="expand"><path fill="#000" d="M4.092 8.414a.745.745 0 0 0 .77-.77V5.336h2.335a.747.747 0 0 0 .744-.77.747.747 0 0 0-.77-.769H4.246a.89.89 0 0 0-.654.269.892.892 0 0 0-.27.655v2.95c0 .206.073.38.219.526a.745.745 0 0 0 .551.218Zm9.237 5.132h2.925c.256 0 .475-.09.655-.269a.893.893 0 0 0 .269-.655v-2.95a.72.72 0 0 0-.218-.527.75.75 0 0 0-.552-.217.75.75 0 0 0-.552.217.75.75 0 0 0-.218.552v2.31h-2.335a.749.749 0 0 0-.744.77.747.747 0 0 0 .77.77ZM2.347 16.368c-.513 0-.949-.18-1.308-.538A1.782 1.782 0 0 1 .5 14.52v-11.7c0-.513.18-.95.539-1.309.359-.359.795-.538 1.308-.538h15.806c.513 0 .949.18 1.308.538.36.36.539.796.539 1.309v11.7c0 .513-.18.95-.539 1.309-.359.359-.795.538-1.308.538H2.347Zm0-1.54h15.806a.3.3 0 0 0 .218-.088.3.3 0 0 0 .09-.219v-11.7a.296.296 0 0 0-.09-.218.298.298 0 0 0-.218-.09H2.347a.294.294 0 0 0-.217.09.294.294 0 0 0-.09.218v11.7c0 .085.03.158.09.219.06.06.132.089.217.089Z" /></symbol><symbol viewBox="0 0 24 24" fill="currentColor" id="facebook">
<path d="M16.8989 7.89812H13.5277V5.68709C13.5277 4.85674 14.078 4.66315 14.4656 4.66315C14.8524 4.66315 16.8447 4.66315 16.8447 4.66315V1.01279L13.5683 1C9.93114 1 9.10343 3.72256 9.10343 5.46484V7.89812H7V11.6596H9.10343C9.10343 16.4869 9.10343 22.3033 9.10343 22.3033H13.5277C13.5277 22.3033 13.5277 16.4296 13.5277 11.6596H16.5131L16.8989 7.89812Z" />
</symbol><symbol viewBox="0 0 48 48" id="filter"><path d="M22 40q-.85 0-1.425-.575Q20 38.85 20 38V26L8.05 10.75q-.7-.85-.2-1.8Q8.35 8 9.4 8h29.2q1.05 0 1.55.95t-.2 1.8L28 26v12q0 .85-.575 1.425Q26.85 40 26 40Zm2-13.8L36 11H12Zm0 0Z" /></symbol><symbol viewBox="0 0 48 48" id="gear"><path d="M27.3 44h-6.6q-.55 0-.975-.35-.425-.35-.525-.9l-.8-5.05q-.95-.35-2-.95t-1.85-1.25L9.9 37.65q-.55.25-1.1.075T7.95 37l-3.3-5.85q-.3-.5-.15-1.05t.6-.9l4.3-3.15q-.1-.45-.125-1.025Q9.25 24.45 9.25 24q0-.45.025-1.025T9.4 21.95L5.1 18.8q-.45-.35-.6-.9-.15-.55.15-1.05L7.95 11q.3-.55.85-.725.55-.175 1.1.075l4.65 2.15q.8-.65 1.85-1.25t2-.9l.8-5.1q.1-.55.525-.9Q20.15 4 20.7 4h6.6q.55 0 .975.35.425.35.525.9l.8 5.05q.95.35 2.025.925Q32.7 11.8 33.45 12.5l4.65-2.15q.55-.25 1.1-.075t.85.725l3.3 5.8q.3.5.175 1.075t-.625.925l-4.3 3.05q.1.5.125 1.075.025.575.025 1.075t-.025 1.05q-.025.55-.125 1.05l4.3 3.1q.45.35.6.9.15.55-.15 1.05L40.05 37q-.3.55-.85.725-.55.175-1.1-.075l-4.65-2.15q-.8.65-1.825 1.275-1.025.625-2.025.925l-.8 5.05q-.1.55-.525.9-.425.35-.975.35ZM24 30.5q2.7 0 4.6-1.9 1.9-1.9 1.9-4.6 0-2.7-1.9-4.6-1.9-1.9-4.6-1.9-2.7 0-4.6 1.9-1.9 1.9-1.9 4.6 0 2.7 1.9 4.6 1.9 1.9 4.6 1.9Zm0-3q-1.45 0-2.475-1.025Q20.5 25.45 20.5 24q0-1.45 1.025-2.475Q22.55 20.5 24 20.5q1.45 0 2.475 1.025Q27.5 22.55 27.5 24q0 1.45-1.025 2.475Q25.45 27.5 24 27.5Zm0-3.5Zm-2.2 17h4.4l.7-5.6q1.65-.4 3.125-1.25T32.7 32.1l5.3 2.3 2-3.6-4.7-3.45q.2-.85.325-1.675.125-.825.125-1.675 0-.85-.1-1.675-.1-.825-.35-1.675L40 17.2l-2-3.6-5.3 2.3q-1.15-1.3-2.6-2.175-1.45-.875-3.2-1.125L26.2 7h-4.4l-.7 5.6q-1.7.35-3.175 1.2-1.475.85-2.625 2.1L10 13.6l-2 3.6 4.7 3.45q-.2.85-.325 1.675-.125.825-.125 1.675 0 .85.125 1.675.125.825.325 1.675L8 30.8l2 3.6 5.3-2.3q1.2 1.2 2.675 2.05Q19.45 35 21.1 35.4Z" /></symbol><symbol viewBox="0 0 49 49" fill="currentColor" id="infoAlert">

<g mask="url(#infoAlert_mask0_1332_7206)">
<path d="M24.3828 26.5672C24.823 26.5672 25.1874 26.4229 25.476 26.1344C25.7631 25.8472 25.9067 25.4835 25.9067 25.0432V15.8489C25.9067 15.4425 25.7631 15.095 25.476 14.8065C25.1874 14.5193 24.823 14.3757 24.3828 14.3757C23.9426 14.3757 23.5788 14.5193 23.2917 14.8065C23.0031 15.095 22.8589 15.4594 22.8589 15.8997V25.094C22.8589 25.5004 23.0031 25.8472 23.2917 26.1344C23.5788 26.4229 23.9426 26.5672 24.3828 26.5672ZM24.3828 33.9836C24.8569 33.9836 25.2464 33.8312 25.5511 33.5264C25.8559 33.2216 26.0083 32.8322 26.0083 32.3581C26.0083 31.884 25.8559 31.4945 25.5511 31.1897C25.2464 30.885 24.8569 30.7326 24.3828 30.7326C23.9087 30.7326 23.5192 30.885 23.2145 31.1897C22.9097 31.4945 22.7573 31.884 22.7573 32.3581C22.7573 32.8322 22.9097 33.2216 23.2145 33.5264C23.5192 33.8312 23.9087 33.9836 24.3828 33.9836ZM24.3828 43.6859C21.7075 43.6859 19.1933 43.178 16.8404 42.162C14.4861 41.1461 12.4454 39.7745 10.7182 38.0474C8.99113 36.3203 7.61959 34.2796 6.60364 31.9253C5.58769 29.5723 5.07971 27.0582 5.07971 24.3829C5.07971 21.7075 5.58769 19.1927 6.60364 16.8384C7.61959 14.4854 8.99113 12.4454 10.7182 10.7183C12.4454 8.99118 14.4861 7.61965 16.8404 6.60369C19.1933 5.58774 21.7075 5.07977 24.3828 5.07977C27.0581 5.07977 29.573 5.58774 31.9273 6.60369C34.2802 7.61965 36.3202 8.99118 38.0474 10.7183C39.7745 12.4454 41.146 14.4854 42.162 16.8384C43.1779 19.1927 43.6859 21.7075 43.6859 24.3829C43.6859 27.0582 43.1779 29.5723 42.162 31.9253C41.146 34.2796 39.7745 36.3203 38.0474 38.0474C36.3202 39.7745 34.2802 41.1461 31.9273 42.162C29.573 43.178 27.0581 43.6859 24.3828 43.6859ZM24.3828 40.6381C28.8869 40.6381 32.7224 39.0552 35.8895 35.8895C39.0552 32.7225 40.638 28.8869 40.638 24.3829C40.638 19.8788 39.0552 16.0432 35.8895 12.8762C32.7224 9.71047 28.8869 8.12762 24.3828 8.12762C19.8787 8.12762 16.0439 9.71047 12.8782 12.8762C9.7111 16.0432 8.12757 19.8788 8.12757 24.3829C8.12757 28.8869 9.7111 32.7225 12.8782 35.8895C16.0439 39.0552 19.8787 40.6381 24.3828 40.6381Z" />
</g>
</symbol><mask id="infoAlert_mask0_1332_7206" style="mask-type:alpha" maskUnits="userSpaceOnUse" x="0" y="0" width="49" height="49">
<rect width="48.7657" height="48.7657" />
</mask><symbol viewBox="0 0 34 35" fill="currentColor" id="infoCircle">
<g clip-path="url(#infoCircle_clip0_2216_13110)">
<path d="M17 3.38599C24.8772 3.38599 31.3438 9.76597 31.3438 17.7297C31.3438 25.6514 24.9282 32.0735 17 32.0735C9.08145 32.0735 2.65625 25.6612 2.65625 17.7297C2.65625 9.81391 9.07123 3.38599 17 3.38599ZM17 1.26099C7.9052 1.26099 0.53125 8.63759 0.53125 17.7297C0.53125 26.8272 7.9052 34.1985 17 34.1985C26.0948 34.1985 33.4688 26.8272 33.4688 17.7297C33.4688 8.63759 26.0948 1.26099 17 1.26099ZM14.6094 24.1047H15.4063V16.136H14.6094C14.1693 16.136 13.8125 15.7792 13.8125 15.3391V14.8079C13.8125 14.3678 14.1693 14.011 14.6094 14.011H17.7969C18.237 14.011 18.5938 14.3678 18.5938 14.8079V24.1047H19.3906C19.8307 24.1047 20.1875 24.4615 20.1875 24.9016V25.4329C20.1875 25.8729 19.8307 26.2297 19.3906 26.2297H14.6094C14.1693 26.2297 13.8125 25.8729 13.8125 25.4329V24.9016C13.8125 24.4615 14.1693 24.1047 14.6094 24.1047ZM17 8.16724C15.8264 8.16724 14.875 9.11864 14.875 10.2922C14.875 11.4658 15.8264 12.4172 17 12.4172C18.1736 12.4172 19.125 11.4658 19.125 10.2922C19.125 9.11864 18.1736 8.16724 17 8.16724Z" />
</g>
<defs>

</defs>
</symbol><clipPath id="infoCircle_clip0_2216_13110">
<rect width="34" height="34" transform="translate(0 0.729736)" />
</clipPath><symbol viewBox="0 0 26 26" fill="currentColor" id="instagram">
<path d="M12.6667 2.60663C9.76975 2.60663 9.4065 2.61891 8.26879 2.67082C7.13345 2.72264 6.35806 2.90293 5.67954 3.16663C4.97811 3.43923 4.38326 3.80395 3.79027 4.39694C3.19728 4.98993 2.83256 5.58479 2.55996 6.28621C2.29626 6.96469 2.11597 7.74008 2.06415 8.87542C2.01224 10.0131 2 10.3764 2 13.2733C2 16.1701 2.01224 16.5334 2.06415 17.6711C2.11597 18.8064 2.29626 19.5818 2.55996 20.2603C2.83256 20.9617 3.19728 21.5566 3.79027 22.1496C4.38326 22.7426 4.97811 23.1073 5.67954 23.3799C6.35806 23.6436 7.13345 23.8239 8.26879 23.8757C9.4065 23.9276 9.76975 23.9399 12.6667 23.9399C15.5635 23.9399 15.9268 23.9276 17.0645 23.8757C18.1998 23.8239 18.9752 23.6436 19.6537 23.3799C20.3551 23.1073 20.95 22.7426 21.543 22.1496C22.136 21.5566 22.5007 20.9617 22.7733 20.2603C23.037 19.5818 23.2173 18.8064 23.2691 17.6711C23.321 16.5334 23.3333 16.1701 23.3333 13.2733C23.3333 10.3764 23.321 10.0131 23.2691 8.87542C23.2173 7.74008 23.037 6.96469 22.7733 6.28621C22.5007 5.58479 22.136 4.98993 21.543 4.39694C20.95 3.80395 20.3551 3.43923 19.6537 3.16663C18.9752 2.90293 18.1998 2.72264 17.0645 2.67082C15.9268 2.61891 15.5635 2.60663 12.6667 2.60663ZM12.6667 4.52858C15.5147 4.52858 15.8521 4.53942 16.9769 4.59074C18.0168 4.6382 18.5816 4.81197 18.9575 4.95801C19.4554 5.15151 19.8107 5.38269 20.184 5.75593C20.5572 6.12917 20.7884 6.48454 20.9819 6.98239C21.128 7.35825 21.3017 7.92304 21.3491 8.96302C21.4005 10.0878 21.4113 10.4252 21.4113 13.2733C21.4113 16.1214 21.4005 16.4587 21.3491 17.5835C21.3017 18.6235 21.128 19.1883 20.9819 19.5641C20.7884 20.062 20.5572 20.4174 20.184 20.7906C19.8107 21.1639 19.4554 21.395 18.9575 21.5885C18.5816 21.7346 18.0168 21.9084 16.9769 21.9558C15.8523 22.0071 15.5149 22.018 12.6667 22.018C9.81831 22.018 9.48102 22.0071 8.3564 21.9558C7.31641 21.9084 6.75162 21.7346 6.37576 21.5885C5.87787 21.395 5.52254 21.1639 5.14926 20.7906C4.77602 20.4174 4.54484 20.062 4.35138 19.5641C4.2053 19.1883 4.03153 18.6235 3.98407 17.5835C3.93275 16.4587 3.92191 16.1214 3.92191 13.2733C3.92191 10.4252 3.93275 10.0878 3.98407 8.96302C4.03153 7.92304 4.2053 7.35825 4.35138 6.98239C4.54484 6.48454 4.77602 6.12917 5.14926 5.75593C5.52254 5.38269 5.87787 5.15151 6.37576 4.95801C6.75162 4.81197 7.31641 4.6382 8.3564 4.59074C9.48115 4.53942 9.81852 4.52858 12.6667 4.52858Z" fill="currentColor" />
<path d="M12.6667 16.8288C10.703 16.8288 9.11109 15.2369 9.11109 13.2733C9.11109 11.3096 10.703 9.71772 12.6667 9.71772C14.6303 9.71772 16.2222 11.3096 16.2222 13.2733C16.2222 15.2369 14.6303 16.8288 12.6667 16.8288ZM12.6667 7.7958C9.6415 7.7958 7.18918 10.2481 7.18918 13.2733C7.18918 16.2984 9.6415 18.7507 12.6667 18.7507C15.6918 18.7507 18.1441 16.2984 18.1441 13.2733C18.1441 10.2481 15.6918 7.7958 12.6667 7.7958Z" fill="currentColor" />
<path d="M19.6405 7.5794C19.6405 8.28632 19.0674 8.85937 18.3605 8.85937C17.6536 8.85937 17.0805 8.28632 17.0805 7.5794C17.0805 6.87247 17.6536 6.29942 18.3605 6.29942C19.0674 6.29942 19.6405 6.87247 19.6405 7.5794Z" fill="currentColor" />
</symbol><symbol viewBox="0 0 22 17" fill="currentColor" id="jumpPage">
<path d="M5.975 16.3124C5.825 16.1624 5.75 15.9914 5.75 15.7994C5.75 15.6081 5.825 15.4374 5.975 15.2874L7.275 13.9374C5.45833 13.8207 3.91667 13.1291 2.65 11.8624C1.38333 10.5957 0.75 9.04574 0.75 7.2124C0.75 5.32907 1.40433 3.73307 2.713 2.4244C4.021 1.1164 5.61667 0.462402 7.5 0.462402H9.5C9.71667 0.462402 9.896 0.533069 10.038 0.674402C10.1793 0.816402 10.25 0.995736 10.25 1.2124C10.25 1.42907 10.1793 1.60807 10.038 1.7494C9.896 1.8914 9.71667 1.9624 9.5 1.9624H7.5C6.05 1.9624 4.81233 2.47474 3.787 3.4994C2.76233 4.52474 2.25 5.7624 2.25 7.2124C2.25 8.6124 2.71667 9.7874 3.65 10.7374C4.58333 11.6874 5.775 12.2457 7.225 12.4124L5.975 11.1624C5.84167 11.0124 5.775 10.8374 5.775 10.6374C5.775 10.4374 5.84167 10.2624 5.975 10.1124C6.14167 9.9624 6.325 9.8874 6.525 9.8874C6.725 9.8874 6.9 9.9624 7.05 10.1124L9.525 12.5874C9.60833 12.6707 9.671 12.7667 9.713 12.8754C9.75433 12.9834 9.775 13.0957 9.775 13.2124C9.775 13.3291 9.75433 13.4414 9.713 13.5494C9.671 13.6581 9.60833 13.7541 9.525 13.8374L7.025 16.3374C6.89167 16.4707 6.721 16.5374 6.513 16.5374C6.30433 16.5374 6.125 16.4624 5.975 16.3124ZM14.25 6.9624C13.8333 6.9624 13.4793 6.8164 13.188 6.5244C12.896 6.23307 12.75 5.87907 12.75 5.4624V1.9624C12.75 1.54574 12.896 1.19174 13.188 0.900403C13.4793 0.608403 13.8333 0.462402 14.25 0.462402H19.75C20.1667 0.462402 20.5207 0.608403 20.812 0.900403C21.104 1.19174 21.25 1.54574 21.25 1.9624V5.4624C21.25 5.87907 21.104 6.23307 20.812 6.5244C20.5207 6.8164 20.1667 6.9624 19.75 6.9624H14.25ZM14.25 5.4624H19.75V1.9624H14.25V5.4624ZM14.25 15.9624C13.8333 15.9624 13.4793 15.8164 13.188 15.5244C12.896 15.2331 12.75 14.8791 12.75 14.4624V10.9624C12.75 10.5457 12.896 10.1917 13.188 9.9004C13.4793 9.6084 13.8333 9.4624 14.25 9.4624H19.75C20.1667 9.4624 20.5207 9.6084 20.812 9.9004C21.104 10.1917 21.25 10.5457 21.25 10.9624V14.4624C21.25 14.8791 21.104 15.2331 20.812 15.5244C20.5207 15.8164 20.1667 15.9624 19.75 15.9624H14.25Z" />
</symbol><symbol viewBox="0 0 48 48" id="link"><path d="M14 34q-4.25 0-7.125-2.875T4 24q0-4.25 2.875-7.125T14 14h7q.65 0 1.075.425.425.425.425 1.075 0 .65-.425 1.075Q21.65 17 21 17h-7q-3 0-5 2t-2 5q0 3 2 5t5 2h7q.65 0 1.075.425.425.425.425 1.075 0 .65-.425 1.075Q21.65 34 21 34Zm3.75-8.5q-.65 0-1.075-.425-.425-.425-.425-1.075 0-.65.425-1.075.425-.425 1.075-.425h12.5q.65 0 1.075.425.425.425.425 1.075 0 .65-.425 1.075-.425.425-1.075.425ZM27 34q-.65 0-1.075-.425-.425-.425-.425-1.075 0-.65.425-1.075Q26.35 31 27 31h7q3 0 5-2t2-5q0-3-2-5t-5-2h-7q-.65 0-1.075-.425-.425-.425-.425-1.075 0-.65.425-1.075Q26.35 14 27 14h7q4.25 0 7.125 2.875T44 24q0 4.25-2.875 7.125T34 34Z" /></symbol><symbol viewBox="0 0 48 48" id="list"><path d="M16 17q-.65 0-1.075-.425-.425-.425-.425-1.075 0-.65.425-1.075Q15.35 14 16 14h24.5q.65 0 1.075.425Q42 14.85 42 15.5q0 .65-.425 1.075Q41.15 17 40.5 17Zm0 8.5q-.65 0-1.075-.425Q14.5 24.65 14.5 24q0-.65.425-1.075Q15.35 22.5 16 22.5h24.5q.65 0 1.075.425Q42 23.35 42 24q0 .65-.425 1.075-.425.425-1.075.425Zm0 8.5q-.65 0-1.075-.425-.425-.425-.425-1.075 0-.65.425-1.075Q15.35 31 16 31h24.5q.65 0 1.075.425Q42 31.85 42 32.5q0 .65-.425 1.075Q41.15 34 40.5 34ZM7.5 17q-.65 0-1.075-.425Q6 16.15 6 15.5q0-.65.425-1.075Q6.85 14 7.5 14q.65 0 1.075.425Q9 14.85 9 15.5q0 .65-.425 1.075Q8.15 17 7.5 17Zm0 8.5q-.65 0-1.075-.425Q6 24.65 6 24q0-.65.425-1.075Q6.85 22.5 7.5 22.5q.65 0 1.075.425Q9 23.35 9 24q0 .65-.425 1.075-.425.425-1.075.425Zm0 8.5q-.65 0-1.075-.425Q6 33.15 6 32.5q0-.65.425-1.075Q6.85 31 7.5 31q.65 0 1.075.425Q9 31.85 9 32.5q0 .65-.425 1.075Q8.15 34 7.5 34Z" /></symbol><symbol viewBox="0 0 48 47" fill="currentColor" id="menu">
<path d="M6.89581 35.6829C6.50846 35.6829 6.19131 35.5564 5.94436 35.3034C5.69825 35.0513 5.5752 34.7264 5.5752 34.3288C5.5752 33.932 5.69825 33.6071 5.94436 33.3541C6.19131 33.102 6.50846 32.976 6.89581 32.976H41.2546C41.6419 32.976 41.9591 33.1111 42.206 33.3814C42.4521 33.6526 42.5752 33.9684 42.5752 34.3288C42.5752 34.7264 42.4521 35.0513 42.206 35.3034C41.9591 35.5564 41.6419 35.6829 41.2546 35.6829H6.89581ZM6.89581 24.854C6.50846 24.854 6.19131 24.7275 5.94436 24.4746C5.69825 24.2216 5.5752 23.8967 5.5752 23.4999C5.5752 23.1032 5.69825 22.7783 5.94436 22.5253C6.19131 22.2723 6.50846 22.1459 6.89581 22.1459H41.2546C41.6419 22.1459 41.9591 22.2723 42.206 22.5253C42.4521 22.7783 42.5752 23.1032 42.5752 23.4999C42.5752 23.8967 42.4521 24.2216 42.206 24.4746C41.9591 24.7275 41.6419 24.854 41.2546 24.854H6.89581ZM6.89581 14.0239C6.50846 14.0239 6.19131 13.8888 5.94436 13.6185C5.69825 13.3473 5.5752 13.0315 5.5752 12.6711C5.5752 12.2735 5.69825 11.9486 5.94436 11.6965C6.19131 11.4435 6.50846 11.317 6.89581 11.317H41.2546C41.6419 11.317 41.9591 11.4435 42.206 11.6965C42.4521 11.9486 42.5752 12.2735 42.5752 12.6711C42.5752 13.0679 42.4521 13.3928 42.206 13.6457C41.9591 13.8978 41.6419 14.0239 41.2546 14.0239H6.89581Z" />
</symbol><symbol fill="currentColor" fill-rule="evenodd" stroke-linejoin="round" stroke-miterlimit="2" viewBox="0 0 24 24" id="minus"><path d="m21 11.75c0-.414-.336-.75-.75-.75h-16.5c-.414 0-.75.336-.75.75s.336.75.75.75h16.5c.414 0 .75-.336.75-.75z" fill-rule="nonzero" /></symbol><symbol fill="currentColor" viewBox="0 0 48 48" id="pages"><path d="M11.3 40q-1.4 0-2.35-.95Q8 38.1 8 36.7q0-1.4.95-2.35.95-.95 2.35-.95 1.4 0 2.35.95.95.95.95 2.35 0 1.4-.95 2.35-.95.95-2.35.95ZM24 40q-1.4 0-2.35-.95-.95-.95-.95-2.35 0-1.4.95-2.35.95-.95 2.35-.95 1.4 0 2.35.95.95.95.95 2.35 0 1.4-.95 2.35Q25.4 40 24 40Zm12.7 0q-1.4 0-2.35-.95-.95-.95-.95-2.35 0-1.4.95-2.35.95-.95 2.35-.95 1.4 0 2.35.95.95.95.95 2.35 0 1.4-.95 2.35-.95.95-2.35.95ZM11.3 27.3q-1.4 0-2.35-.95Q8 25.4 8 24q0-1.4.95-2.35.95-.95 2.35-.95 1.4 0 2.35.95.95.95.95 2.35 0 1.4-.95 2.35-.95.95-2.35.95Zm12.7 0q-1.4 0-2.35-.95-.95-.95-.95-2.35 0-1.4.95-2.35.95-.95 2.35-.95 1.4 0 2.35.95.95.95.95 2.35 0 1.4-.95 2.35-.95.95-2.35.95Zm12.7 0q-1.4 0-2.35-.95-.95-.95-.95-2.35 0-1.4.95-2.35.95-.95 2.35-.95 1.4 0 2.35.95.95.95.95 2.35 0 1.4-.95 2.35-.95.95-2.35.95ZM11.3 14.6q-1.4 0-2.35-.95Q8 12.7 8 11.3q0-1.4.95-2.35Q9.9 8 11.3 8q1.4 0 2.35.95.95.95.95 2.35 0 1.4-.95 2.35-.95.95-2.35.95Zm12.7 0q-1.4 0-2.35-.95-.95-.95-.95-2.35 0-1.4.95-2.35Q22.6 8 24 8q1.4 0 2.35.95.95.95.95 2.35 0 1.4-.95 2.35-.95.95-2.35.95Zm12.7 0q-1.4 0-2.35-.95-.95-.95-.95-2.35 0-1.4.95-2.35Q35.3 8 36.7 8q1.4 0 2.35.95.95.95.95 2.35 0 1.4-.95 2.35-.95.95-2.35.95Z" /></symbol><symbol viewBox="0 0 300.003 300.003" fill="currentColor" id="pause">
<g>
	<g>
		<path d="M150.001,0c-82.838,0-150,67.159-150,150c0,82.838,67.162,150.003,150,150.003c82.843,0,150-67.165,150-150.003
			C300.001,67.159,232.846,0,150.001,0z M134.41,194.538c0,9.498-7.7,17.198-17.198,17.198s-17.198-7.7-17.198-17.198V105.46
			c0-9.498,7.7-17.198,17.198-17.198s17.198,7.7,17.198,17.198V194.538z M198.955,194.538c0,9.498-7.701,17.198-17.198,17.198
			c-9.498,0-17.198-7.7-17.198-17.198V105.46c0-9.498,7.7-17.198,17.198-17.198s17.198,7.7,17.198,17.198V194.538z" />
	</g>
</g>
<g>
</g>
<g>
</g>
<g>
</g>
<g>
</g>
<g>
</g>
<g>
</g>
<g>
</g>
<g>
</g>
<g>
</g>
<g>
</g>
<g>
</g>
<g>
</g>
<g>
</g>
<g>
</g>
<g>
</g>
</symbol><symbol viewBox="0 0 408.221 408.221" fill="currentColor" id="play">
<g>
	<g>
		<path d="M204.11,0C91.388,0,0,91.388,0,204.111c0,112.725,91.388,204.11,204.11,204.11c112.729,0,204.11-91.385,204.11-204.11
			C408.221,91.388,316.839,0,204.11,0z M286.547,229.971l-126.368,72.471c-17.003,9.75-30.781,1.763-30.781-17.834V140.012
			c0-19.602,13.777-27.575,30.781-17.827l126.368,72.466C303.551,204.403,303.551,220.217,286.547,229.971z" />
	</g>
</g>
<g>
</g>
<g>
</g>
<g>
</g>
<g>
</g>
<g>
</g>
<g>
</g>
<g>
</g>
<g>
</g>
<g>
</g>
<g>
</g>
<g>
</g>
<g>
</g>
<g>
</g>
<g>
</g>
<g>
</g>
</symbol><symbol viewBox="0 0 48 48" id="plus"><path d="M24 38q-.65 0-1.075-.425-.425-.425-.425-1.075v-11h-11q-.65 0-1.075-.425Q10 24.65 10 24q0-.65.425-1.075.425-.425 1.075-.425h11v-11q0-.65.425-1.075Q23.35 10 24 10q.65 0 1.075.425.425.425.425 1.075v11h11q.65 0 1.075.425Q38 23.35 38 24q0 .65-.425 1.075-.425.425-1.075.425h-11v11q0 .65-.425 1.075Q24.65 38 24 38Z" /></symbol><symbol viewBox="0 0 48 48" id="search"><path d="M38.7 40.85 26.65 28.8q-1.5 1.3-3.5 2.025-2 .725-4.25.725-5.4 0-9.15-3.75T6 18.75q0-5.3 3.75-9.05 3.75-3.75 9.1-3.75 5.3 0 9.025 3.75 3.725 3.75 3.725 9.05 0 2.15-.7 4.15-.7 2-2.1 3.75L40.95 38.7q.45.4.45 1.025 0 .625-.5 1.125-.45.45-1.1.45-.65 0-1.1-.45Zm-19.85-12.3q4.05 0 6.9-2.875Q28.6 22.8 28.6 18.75t-2.85-6.925Q22.9 8.95 18.85 8.95q-4.1 0-6.975 2.875T9 18.75q0 4.05 2.875 6.925t6.975 2.875Z" /></symbol><symbol viewBox="0 0 26 25" fill="currentColor" id="twitter">
<path d="M24.042 5.22168C23.1924 5.59766 22.2842 5.85156 21.3271 5.96875C22.3037 5.38281 23.0557 4.45508 23.4072 3.35156C22.4941 3.89355 21.4834 4.28906 20.4043 4.49902C19.54 3.57617 18.3096 3 16.9521 3C14.3398 3 12.2256 5.11914 12.2256 7.73144C12.2256 8.10254 12.2646 8.46387 12.3477 8.81055C8.41699 8.61523 4.93066 6.73047 2.60156 3.86426C2.19629 4.5625 1.96191 5.37793 1.96191 6.24219C1.96191 7.88281 2.79688 9.33301 4.06641 10.1826C3.29004 10.1631 2.55762 9.94824 1.92285 9.5918C1.92285 9.61133 1.92285 9.63086 1.92285 9.65039C1.92285 11.9453 3.55371 13.8545 5.7168 14.2891C5.32129 14.3965 4.90137 14.4551 4.47168 14.4551C4.16895 14.4551 3.87109 14.4258 3.58301 14.3672C4.18359 16.2471 5.93164 17.6143 8.00195 17.6533C6.38574 18.9229 4.34473 19.6797 2.12793 19.6797C1.74707 19.6797 1.37109 19.6553 1 19.6113C3.08984 20.9688 5.57519 21.75 8.24121 21.75C16.9424 21.75 21.6982 14.5381 21.6982 8.2832C21.6982 8.07812 21.6934 7.87305 21.6836 7.67285C22.6064 7.00391 23.4072 6.16895 24.042 5.22168Z" />
</symbol><symbol viewBox="0 0 28 25" fill="currentColor" id="youtube">
<path d="M26.163 6.32739C25.8674 5.21447 24.9965 4.33796 23.8908 4.04051C21.8866 3.5 13.85 3.5 13.85 3.5C13.85 3.5 5.81343 3.5 3.80918 4.04051C2.70345 4.33801 1.8326 5.21447 1.53703 6.32739C1 8.34463 1 12.5534 1 12.5534C1 12.5534 1 16.7622 1.53703 18.7794C1.8326 19.8923 2.70345 20.7323 3.80918 21.0298C5.81343 21.5703 13.85 21.5703 13.85 21.5703C13.85 21.5703 21.8866 21.5703 23.8908 21.0298C24.9965 20.7323 25.8674 19.8923 26.163 18.7794C26.7 16.7622 26.7 12.5534 26.7 12.5534C26.7 12.5534 26.7 8.34463 26.163 6.32739ZM11.2216 16.3747V8.73215L17.9386 12.5535L11.2216 16.3747Z" />
</symbol></defs></svg>