<svg width="41" height="41" viewBox="0 0 41 41" fill="currentColor" xmlns="http://www.w3.org/2000/svg">
<path d="M19.5289 27.0282L14.188 21.6873C13.8643 21.3636 13.7025 20.9678 13.7025 20.5C13.7025 20.0322 13.8643 19.6364 14.188 19.3127L19.5833 13.9187C19.8345 13.6667 20.1401 13.5406 20.5 13.5406C20.8599 13.5406 21.1655 13.6667 21.4167 13.9187C21.705 14.2062 21.8491 14.5298 21.8491 14.8898C21.8491 15.2489 21.705 15.5544 21.4167 15.8065L18.1267 19.1509H27.0282C27.3873 19.1509 27.6928 19.2859 27.9449 19.5561C28.1969 19.8254 28.323 20.1401 28.323 20.5C28.323 20.8953 28.1969 21.219 27.9449 21.4711C27.6928 21.7231 27.3692 21.8491 26.9738 21.8491H18.1267L21.4711 25.1935C21.7231 25.4456 21.8401 25.7511 21.822 26.1102C21.8038 26.4702 21.6687 26.7762 21.4167 27.0282C21.1655 27.3156 20.8509 27.4594 20.4728 27.4594C20.0956 27.4594 19.781 27.3156 19.5289 27.0282ZM20.5 41C23.377 41 26.0563 40.4696 28.5379 39.4087C31.0195 38.3479 33.1865 36.8913 35.0389 35.0389C36.8913 33.1865 38.3479 31.0195 39.4087 28.5379C40.4696 26.0563 41 23.377 41 20.5C41 17.6584 40.4696 14.9882 39.4087 12.4893C38.3479 9.98954 36.8913 7.81347 35.0389 5.96109C33.1865 4.10872 31.0195 2.65211 28.5379 1.59127C26.0563 0.530422 23.377 0 20.5 0C17.6584 0 14.9878 0.530422 12.488 1.59127C9.98911 2.65211 7.81347 4.10872 5.9611 5.96109C4.10872 7.81347 2.65211 9.98954 1.59127 12.4893C0.530422 14.9882 -1.57046e-06 17.6584 -1.57046e-06 20.5C-1.57046e-06 23.377 0.530422 26.0563 1.59127 28.5379C2.65211 31.0195 4.10872 33.1865 5.9611 35.0389C7.81347 36.8913 9.98911 38.3479 12.488 39.4087C14.9878 40.4696 17.6584 41 20.5 41ZM20.5 38.303C15.5005 38.303 11.2834 36.5857 7.84886 33.1511C4.41428 29.7166 2.69699 25.4995 2.69699 20.5C2.69699 15.5005 4.41428 11.2834 7.84886 7.84886C11.2834 4.41428 15.5005 2.69699 20.5 2.69699C25.4995 2.69699 29.7166 4.41428 33.1511 7.84886C36.5857 11.2834 38.303 15.5005 38.303 20.5C38.303 25.4995 36.5857 29.7166 33.1511 33.1511C29.7166 36.5857 25.4995 38.303 20.5 38.303Z"/>
</svg>
