<svg width="22" height="23" viewBox="0 0 22 23" fill="currentColor" xmlns="http://www.w3.org/2000/svg">
<path d="M14.5029 10.9789L11.6371 8.11309C11.4634 7.9394 11.251 7.85256 11 7.85256C10.749 7.85256 10.5366 7.9394 10.3629 8.11309L7.46858 11.0081C7.33333 11.1429 7.26571 11.3069 7.26571 11.5C7.26571 11.6931 7.33333 11.8571 7.46858 11.9919C7.62281 12.1466 7.7965 12.2239 7.98964 12.2239C8.18232 12.2239 8.34628 12.1466 8.48153 11.9919L10.2761 10.2265L10.2761 15.0029C10.2761 15.1956 10.3486 15.3596 10.4935 15.4948C10.638 15.6301 10.8069 15.6977 11 15.6977C11.2121 15.6977 11.3858 15.6301 11.5211 15.4948C11.6563 15.3596 11.7239 15.1859 11.7239 14.9738L11.7239 10.2265L13.5185 12.0211C13.6537 12.1563 13.8177 12.2191 14.0104 12.2093C14.2035 12.1996 14.3677 12.1271 14.5029 11.9919C14.6572 11.8571 14.7343 11.6883 14.7343 11.4854C14.7343 11.283 14.6572 11.1142 14.5029 10.9789ZM22 11.5C22 13.0437 21.7154 14.4814 21.1462 15.813C20.5769 17.1446 19.7953 18.3074 18.8014 19.3014C17.8074 20.2953 16.6446 21.0769 15.313 21.6462C13.9814 22.2154 12.5437 22.5 11 22.5C9.47525 22.5 8.04244 22.2154 6.70157 21.6462C5.36024 21.0769 4.19259 20.2953 3.19864 19.3014C2.20468 18.3074 1.42308 17.1446 0.85385 15.813C0.284617 14.4814 1.12765e-07 13.0437 1.31174e-07 11.5C1.49356e-07 9.97525 0.284617 8.54221 0.85385 7.20088C1.42308 5.86001 2.20468 4.69259 3.19864 3.69864C4.19259 2.70468 5.36024 1.92308 6.70157 1.35385C8.04244 0.784617 9.47525 0.5 11 0.5C12.5437 0.5 13.9814 0.784617 15.313 1.35385C16.6446 1.92308 17.8074 2.70468 18.8014 3.69864C19.7953 4.69259 20.5769 5.86001 21.1462 7.20088C21.7154 8.54221 22 9.97525 22 11.5ZM20.5528 11.5C20.5528 8.81733 19.6314 6.55453 17.7884 4.71158C15.9455 2.86864 13.6827 1.94717 11 1.94717C8.31733 1.94717 6.05453 2.86864 4.21158 4.71158C2.36864 6.55453 1.44717 8.81733 1.44717 11.5C1.44717 14.1827 2.36864 16.4455 4.21158 18.2884C6.05453 20.1314 8.31733 21.0528 11 21.0528C13.6827 21.0528 15.9455 20.1314 17.7884 18.2884C19.6314 16.4455 20.5528 14.1827 20.5528 11.5Z"/>
</svg>
