<svg width="41" height="41" viewBox="0 0 41 41" fill="currentColor" xmlns="http://www.w3.org/2000/svg">
<path d="M21.4711 27.0282L26.812 21.6873C27.1357 21.3636 27.2975 20.9678 27.2975 20.5C27.2975 20.0322 27.1357 19.6364 26.812 19.3127L21.4167 13.9187C21.1655 13.6667 20.8599 13.5406 20.5 13.5406C20.1401 13.5406 19.8345 13.6667 19.5833 13.9187C19.295 14.2062 19.1509 14.5298 19.1509 14.8898C19.1509 15.2489 19.295 15.5544 19.5833 15.8065L22.8733 19.1509H13.9718C13.6127 19.1509 13.3072 19.2859 13.0551 19.5561C12.8031 19.8254 12.677 20.1401 12.677 20.5C12.677 20.8953 12.8031 21.219 13.0551 21.4711C13.3072 21.7231 13.6308 21.8491 14.0262 21.8491H22.8733L19.5289 25.1935C19.2769 25.4456 19.1599 25.7511 19.178 26.1102C19.1962 26.4702 19.3313 26.7762 19.5833 27.0282C19.8345 27.3156 20.1491 27.4594 20.5272 27.4594C20.9044 27.4594 21.219 27.3156 21.4711 27.0282ZM20.5 41C17.623 41 14.9437 40.4696 12.4621 39.4087C9.98047 38.3479 7.81347 36.8913 5.96109 35.0389C4.10872 33.1865 2.65211 31.0195 1.59127 28.5379C0.530422 26.0563 0 23.377 0 20.5C0 17.6584 0.530422 14.9882 1.59127 12.4893C2.65211 9.98954 4.10872 7.81347 5.96109 5.96109C7.81347 4.10872 9.98047 2.65211 12.4621 1.59127C14.9437 0.530422 17.623 0 20.5 0C23.3416 0 26.0122 0.530422 28.512 1.59127C31.0109 2.65211 33.1865 4.10872 35.0389 5.96109C36.8913 7.81347 38.3479 9.98954 39.4087 12.4893C40.4696 14.9882 41 17.6584 41 20.5C41 23.377 40.4696 26.0563 39.4087 28.5379C38.3479 31.0195 36.8913 33.1865 35.0389 35.0389C33.1865 36.8913 31.0109 38.3479 28.512 39.4087C26.0122 40.4696 23.3416 41 20.5 41ZM20.5 38.303C25.4995 38.303 29.7166 36.5857 33.1511 33.1511C36.5857 29.7166 38.303 25.4995 38.303 20.5C38.303 15.5005 36.5857 11.2834 33.1511 7.84886C29.7166 4.41428 25.4995 2.69699 20.5 2.69699C15.5005 2.69699 11.2834 4.41428 7.84886 7.84886C4.41428 11.2834 2.69699 15.5005 2.69699 20.5C2.69699 25.4995 4.41428 29.7166 7.84886 33.1511C11.2834 36.5857 15.5005 38.303 20.5 38.303Z"/>
</svg>
