<svg width="34" height="34" viewBox="0 0 34 34" fill="currentColor" xmlns="http://www.w3.org/2000/svg">
<path d="M9.61842 24.3816C9.88684 24.65 10.2 24.7842 10.5579 24.7842C10.9158 24.7842 11.2289 24.65 11.4974 24.3816L17 18.8789L22.5474 24.4263C22.786 24.6649 23.092 24.7765 23.4654 24.7609C23.8376 24.7466 24.143 24.6202 24.3816 24.3816C24.65 24.1132 24.7842 23.8 24.7842 23.4421C24.7842 23.0842 24.65 22.7711 24.3816 22.5026L18.8789 17L24.4263 11.4526C24.6649 11.214 24.7765 10.908 24.7609 10.5346C24.7466 10.1624 24.6202 9.85702 24.3816 9.61842C24.1132 9.35 23.8 9.21579 23.4421 9.21579C23.0842 9.21579 22.7711 9.35 22.5026 9.61842L17 15.1211L11.4526 9.57368C11.214 9.33509 10.9086 9.22295 10.5364 9.23726C10.163 9.25277 9.85702 9.37982 9.61842 9.61842C9.35 9.88684 9.21579 10.2 9.21579 10.5579C9.21579 10.9158 9.35 11.2289 9.61842 11.4974L15.1211 17L9.57368 22.5474C9.33509 22.786 9.22354 23.0914 9.23905 23.4636C9.25337 23.837 9.37982 24.143 9.61842 24.3816ZM17 34C14.6439 34 12.4297 33.5526 10.3575 32.6579C8.28407 31.7632 6.48684 30.5553 4.96579 29.0342C3.44474 27.5132 2.23684 25.7159 1.34211 23.6425C0.447368 21.5703 0 19.3561 0 17C0 14.6439 0.447368 12.4291 1.34211 10.3557C2.23684 8.28347 3.44474 6.48684 4.96579 4.96579C6.48684 3.44474 8.28407 2.23684 10.3575 1.34211C12.4297 0.447368 14.6439 0 17 0C19.3561 0 21.5709 0.447368 23.6443 1.34211C25.7165 2.23684 27.5132 3.44474 29.0342 4.96579C30.5553 6.48684 31.7632 8.28347 32.6579 10.3557C33.5526 12.4291 34 14.6439 34 17C34 19.3561 33.5526 21.5703 32.6579 23.6425C31.7632 25.7159 30.5553 27.5132 29.0342 29.0342C27.5132 30.5553 25.7165 31.7632 23.6443 32.6579C21.5709 33.5526 19.3561 34 17 34ZM17 31.3158C20.9667 31.3158 24.3446 29.9218 27.1338 27.1338C29.9218 24.3446 31.3158 20.9667 31.3158 17C31.3158 13.0333 29.9218 9.6554 27.1338 6.86621C24.3446 4.07821 20.9667 2.68421 17 2.68421C13.0333 2.68421 9.656 4.07821 6.868 6.86621C4.07881 9.6554 2.68421 13.0333 2.68421 17C2.68421 20.9667 4.07881 24.3446 6.868 27.1338C9.656 29.9218 13.0333 31.3158 17 31.3158Z"/>
</svg>
