<svg width="49" height="49" viewBox="2 5 47 47" fill="currentColor" xmlns="http://www.w3.org/2000/svg">
<mask id="mask0_1332_7212" style="mask-type:alpha" maskUnits="userSpaceOnUse" x="0" y="0" width="49" height="49">
<rect width="48.7657" height="48.7657"/>
</mask>
<g mask="url(#mask0_1332_7212)">
<path d="M7.07488 43.7864C6.31875 43.7864 5.76066 43.4623 5.4006 42.8142C5.04054 42.1661 5.04054 41.518 5.4006 40.8699L23.8717 8.89658C24.2677 8.24848 24.8438 7.92442 25.6 7.92442C26.3561 7.92442 26.9322 8.24848 27.3282 8.89658L45.7993 40.8699C46.1594 41.518 46.1594 42.1661 45.7993 42.8142C45.4393 43.4623 44.8812 43.7864 44.125 43.7864H7.07488ZM25.6 21.5347C25.1319 21.5347 24.7452 21.6874 24.4398 21.9927C24.1331 22.2995 23.9797 22.6869 23.9797 23.155V30.7162C23.9797 31.1483 24.1331 31.5264 24.4398 31.8504C24.7452 32.1745 25.1319 32.3365 25.6 32.3365C26.068 32.3365 26.4555 32.1745 26.7622 31.8504C27.0676 31.5264 27.2202 31.1483 27.2202 30.7162V23.155C27.2202 22.6869 27.0676 22.2995 26.7622 21.9927C26.4555 21.6874 26.068 21.5347 25.6 21.5347ZM25.6 37.9534C26.104 37.9534 26.5181 37.7914 26.8422 37.4673C27.1662 37.1433 27.3282 36.7292 27.3282 36.2251C27.3282 35.721 27.1662 35.307 26.8422 34.9829C26.5181 34.6589 26.104 34.4968 25.6 34.4968C25.0959 34.4968 24.6818 34.6589 24.3578 34.9829C24.0337 35.307 23.8717 35.721 23.8717 36.2251C23.8717 36.7292 24.0337 37.1433 24.3578 37.4673C24.6818 37.7914 25.0959 37.9534 25.6 37.9534ZM9.28925 40.5458H41.9107L25.6 12.4612L9.28925 40.5458Z"/>
</g>
</svg>
