<svg xmlns="http://www.w3.org/2000/svg" width="20" height="17" fill="none"><path fill="#000" d="M4.092 8.414a.745.745 0 0 0 .77-.77V5.336h2.335a.747.747 0 0 0 .744-.77.747.747 0 0 0-.77-.769H4.246a.89.89 0 0 0-.654.269.892.892 0 0 0-.27.655v2.95c0 .206.073.38.219.526a.745.745 0 0 0 .551.218Zm9.237 5.132h2.925c.256 0 .475-.09.655-.269a.893.893 0 0 0 .269-.655v-2.95a.72.72 0 0 0-.218-.527.75.75 0 0 0-.552-.217.75.75 0 0 0-.552.217.75.75 0 0 0-.218.552v2.31h-2.335a.749.749 0 0 0-.744.77.747.747 0 0 0 .77.77ZM2.347 16.368c-.513 0-.949-.18-1.308-.538A1.782 1.782 0 0 1 .5 14.52v-11.7c0-.513.18-.95.539-1.309.359-.359.795-.538 1.308-.538h15.806c.513 0 .949.18 1.308.538.36.36.539.796.539 1.309v11.7c0 .513-.18.95-.539 1.309-.359.359-.795.538-1.308.538H2.347Zm0-1.54h15.806a.3.3 0 0 0 .218-.088.3.3 0 0 0 .09-.219v-11.7a.296.296 0 0 0-.09-.218.298.298 0 0 0-.218-.09H2.347a.294.294 0 0 0-.217.09.294.294 0 0 0-.09.218v11.7c0 .085.03.158.09.219.06.06.132.089.217.089Z"/></svg>
