<svg width="49" height="49" viewBox="0 0 49 49" fill="currentColor" xmlns="http://www.w3.org/2000/svg">
<mask id="mask0_1332_7206" style="mask-type:alpha" maskUnits="userSpaceOnUse" x="0" y="0" width="49" height="49">
<rect width="48.7657" height="48.7657"/>
</mask>
<g mask="url(#mask0_1332_7206)">
<path d="M24.3828 26.5672C24.823 26.5672 25.1874 26.4229 25.476 26.1344C25.7631 25.8472 25.9067 25.4835 25.9067 25.0432V15.8489C25.9067 15.4425 25.7631 15.095 25.476 14.8065C25.1874 14.5193 24.823 14.3757 24.3828 14.3757C23.9426 14.3757 23.5788 14.5193 23.2917 14.8065C23.0031 15.095 22.8589 15.4594 22.8589 15.8997V25.094C22.8589 25.5004 23.0031 25.8472 23.2917 26.1344C23.5788 26.4229 23.9426 26.5672 24.3828 26.5672ZM24.3828 33.9836C24.8569 33.9836 25.2464 33.8312 25.5511 33.5264C25.8559 33.2216 26.0083 32.8322 26.0083 32.3581C26.0083 31.884 25.8559 31.4945 25.5511 31.1897C25.2464 30.885 24.8569 30.7326 24.3828 30.7326C23.9087 30.7326 23.5192 30.885 23.2145 31.1897C22.9097 31.4945 22.7573 31.884 22.7573 32.3581C22.7573 32.8322 22.9097 33.2216 23.2145 33.5264C23.5192 33.8312 23.9087 33.9836 24.3828 33.9836ZM24.3828 43.6859C21.7075 43.6859 19.1933 43.178 16.8404 42.162C14.4861 41.1461 12.4454 39.7745 10.7182 38.0474C8.99113 36.3203 7.61959 34.2796 6.60364 31.9253C5.58769 29.5723 5.07971 27.0582 5.07971 24.3829C5.07971 21.7075 5.58769 19.1927 6.60364 16.8384C7.61959 14.4854 8.99113 12.4454 10.7182 10.7183C12.4454 8.99118 14.4861 7.61965 16.8404 6.60369C19.1933 5.58774 21.7075 5.07977 24.3828 5.07977C27.0581 5.07977 29.573 5.58774 31.9273 6.60369C34.2802 7.61965 36.3202 8.99118 38.0474 10.7183C39.7745 12.4454 41.146 14.4854 42.162 16.8384C43.1779 19.1927 43.6859 21.7075 43.6859 24.3829C43.6859 27.0582 43.1779 29.5723 42.162 31.9253C41.146 34.2796 39.7745 36.3203 38.0474 38.0474C36.3202 39.7745 34.2802 41.1461 31.9273 42.162C29.573 43.178 27.0581 43.6859 24.3828 43.6859ZM24.3828 40.6381C28.8869 40.6381 32.7224 39.0552 35.8895 35.8895C39.0552 32.7225 40.638 28.8869 40.638 24.3829C40.638 19.8788 39.0552 16.0432 35.8895 12.8762C32.7224 9.71047 28.8869 8.12762 24.3828 8.12762C19.8787 8.12762 16.0439 9.71047 12.8782 12.8762C9.7111 16.0432 8.12757 19.8788 8.12757 24.3829C8.12757 28.8869 9.7111 32.7225 12.8782 35.8895C16.0439 39.0552 19.8787 40.6381 24.3828 40.6381Z"/>
</g>
</svg>
