<svg width="26" height="26" viewBox="0 0 26 26" fill="currentColor" xmlns="http://www.w3.org/2000/svg">
<path d="M12.6667 2.60663C9.76975 2.60663 9.4065 2.61891 8.26879 2.67082C7.13345 2.72264 6.35806 2.90293 5.67954 3.16663C4.97811 3.43923 4.38326 3.80395 3.79027 4.39694C3.19728 4.98993 2.83256 5.58479 2.55996 6.28621C2.29626 6.96469 2.11597 7.74008 2.06415 8.87542C2.01224 10.0131 2 10.3764 2 13.2733C2 16.1701 2.01224 16.5334 2.06415 17.6711C2.11597 18.8064 2.29626 19.5818 2.55996 20.2603C2.83256 20.9617 3.19728 21.5566 3.79027 22.1496C4.38326 22.7426 4.97811 23.1073 5.67954 23.3799C6.35806 23.6436 7.13345 23.8239 8.26879 23.8757C9.4065 23.9276 9.76975 23.9399 12.6667 23.9399C15.5635 23.9399 15.9268 23.9276 17.0645 23.8757C18.1998 23.8239 18.9752 23.6436 19.6537 23.3799C20.3551 23.1073 20.95 22.7426 21.543 22.1496C22.136 21.5566 22.5007 20.9617 22.7733 20.2603C23.037 19.5818 23.2173 18.8064 23.2691 17.6711C23.321 16.5334 23.3333 16.1701 23.3333 13.2733C23.3333 10.3764 23.321 10.0131 23.2691 8.87542C23.2173 7.74008 23.037 6.96469 22.7733 6.28621C22.5007 5.58479 22.136 4.98993 21.543 4.39694C20.95 3.80395 20.3551 3.43923 19.6537 3.16663C18.9752 2.90293 18.1998 2.72264 17.0645 2.67082C15.9268 2.61891 15.5635 2.60663 12.6667 2.60663ZM12.6667 4.52858C15.5147 4.52858 15.8521 4.53942 16.9769 4.59074C18.0168 4.6382 18.5816 4.81197 18.9575 4.95801C19.4554 5.15151 19.8107 5.38269 20.184 5.75593C20.5572 6.12917 20.7884 6.48454 20.9819 6.98239C21.128 7.35825 21.3017 7.92304 21.3491 8.96302C21.4005 10.0878 21.4113 10.4252 21.4113 13.2733C21.4113 16.1214 21.4005 16.4587 21.3491 17.5835C21.3017 18.6235 21.128 19.1883 20.9819 19.5641C20.7884 20.062 20.5572 20.4174 20.184 20.7906C19.8107 21.1639 19.4554 21.395 18.9575 21.5885C18.5816 21.7346 18.0168 21.9084 16.9769 21.9558C15.8523 22.0071 15.5149 22.018 12.6667 22.018C9.81831 22.018 9.48102 22.0071 8.3564 21.9558C7.31641 21.9084 6.75162 21.7346 6.37576 21.5885C5.87787 21.395 5.52254 21.1639 5.14926 20.7906C4.77602 20.4174 4.54484 20.062 4.35138 19.5641C4.2053 19.1883 4.03153 18.6235 3.98407 17.5835C3.93275 16.4587 3.92191 16.1214 3.92191 13.2733C3.92191 10.4252 3.93275 10.0878 3.98407 8.96302C4.03153 7.92304 4.2053 7.35825 4.35138 6.98239C4.54484 6.48454 4.77602 6.12917 5.14926 5.75593C5.52254 5.38269 5.87787 5.15151 6.37576 4.95801C6.75162 4.81197 7.31641 4.6382 8.3564 4.59074C9.48115 4.53942 9.81852 4.52858 12.6667 4.52858Z" fill="currentColor"/>
<path d="M12.6667 16.8288C10.703 16.8288 9.11109 15.2369 9.11109 13.2733C9.11109 11.3096 10.703 9.71772 12.6667 9.71772C14.6303 9.71772 16.2222 11.3096 16.2222 13.2733C16.2222 15.2369 14.6303 16.8288 12.6667 16.8288ZM12.6667 7.7958C9.6415 7.7958 7.18918 10.2481 7.18918 13.2733C7.18918 16.2984 9.6415 18.7507 12.6667 18.7507C15.6918 18.7507 18.1441 16.2984 18.1441 13.2733C18.1441 10.2481 15.6918 7.7958 12.6667 7.7958Z" fill="currentColor"/>
<path d="M19.6405 7.5794C19.6405 8.28632 19.0674 8.85937 18.3605 8.85937C17.6536 8.85937 17.0805 8.28632 17.0805 7.5794C17.0805 6.87247 17.6536 6.29942 18.3605 6.29942C19.0674 6.29942 19.6405 6.87247 19.6405 7.5794Z" fill="currentColor"/>
</svg>
