<svg width="22" height="17" viewBox="0 0 22 17" fill="currentColor" xmlns="http://www.w3.org/2000/svg">
<path d="M5.975 16.3124C5.825 16.1624 5.75 15.9914 5.75 15.7994C5.75 15.6081 5.825 15.4374 5.975 15.2874L7.275 13.9374C5.45833 13.8207 3.91667 13.1291 2.65 11.8624C1.38333 10.5957 0.75 9.04574 0.75 7.2124C0.75 5.32907 1.40433 3.73307 2.713 2.4244C4.021 1.1164 5.61667 0.462402 7.5 0.462402H9.5C9.71667 0.462402 9.896 0.533069 10.038 0.674402C10.1793 0.816402 10.25 0.995736 10.25 1.2124C10.25 1.42907 10.1793 1.60807 10.038 1.7494C9.896 1.8914 9.71667 1.9624 9.5 1.9624H7.5C6.05 1.9624 4.81233 2.47474 3.787 3.4994C2.76233 4.52474 2.25 5.7624 2.25 7.2124C2.25 8.6124 2.71667 9.7874 3.65 10.7374C4.58333 11.6874 5.775 12.2457 7.225 12.4124L5.975 11.1624C5.84167 11.0124 5.775 10.8374 5.775 10.6374C5.775 10.4374 5.84167 10.2624 5.975 10.1124C6.14167 9.9624 6.325 9.8874 6.525 9.8874C6.725 9.8874 6.9 9.9624 7.05 10.1124L9.525 12.5874C9.60833 12.6707 9.671 12.7667 9.713 12.8754C9.75433 12.9834 9.775 13.0957 9.775 13.2124C9.775 13.3291 9.75433 13.4414 9.713 13.5494C9.671 13.6581 9.60833 13.7541 9.525 13.8374L7.025 16.3374C6.89167 16.4707 6.721 16.5374 6.513 16.5374C6.30433 16.5374 6.125 16.4624 5.975 16.3124ZM14.25 6.9624C13.8333 6.9624 13.4793 6.8164 13.188 6.5244C12.896 6.23307 12.75 5.87907 12.75 5.4624V1.9624C12.75 1.54574 12.896 1.19174 13.188 0.900403C13.4793 0.608403 13.8333 0.462402 14.25 0.462402H19.75C20.1667 0.462402 20.5207 0.608403 20.812 0.900403C21.104 1.19174 21.25 1.54574 21.25 1.9624V5.4624C21.25 5.87907 21.104 6.23307 20.812 6.5244C20.5207 6.8164 20.1667 6.9624 19.75 6.9624H14.25ZM14.25 5.4624H19.75V1.9624H14.25V5.4624ZM14.25 15.9624C13.8333 15.9624 13.4793 15.8164 13.188 15.5244C12.896 15.2331 12.75 14.8791 12.75 14.4624V10.9624C12.75 10.5457 12.896 10.1917 13.188 9.9004C13.4793 9.6084 13.8333 9.4624 14.25 9.4624H19.75C20.1667 9.4624 20.5207 9.6084 20.812 9.9004C21.104 10.1917 21.25 10.5457 21.25 10.9624V14.4624C21.25 14.8791 21.104 15.2331 20.812 15.5244C20.5207 15.8164 20.1667 15.9624 19.75 15.9624H14.25Z"/>
</svg>
