<svg width="48" height="47" viewBox="0 0 48 47" fill="currentColor" xmlns="http://www.w3.org/2000/svg">
<path d="M6.89581 35.6829C6.50846 35.6829 6.19131 35.5564 5.94436 35.3034C5.69825 35.0513 5.5752 34.7264 5.5752 34.3288C5.5752 33.932 5.69825 33.6071 5.94436 33.3541C6.19131 33.102 6.50846 32.976 6.89581 32.976H41.2546C41.6419 32.976 41.9591 33.1111 42.206 33.3814C42.4521 33.6526 42.5752 33.9684 42.5752 34.3288C42.5752 34.7264 42.4521 35.0513 42.206 35.3034C41.9591 35.5564 41.6419 35.6829 41.2546 35.6829H6.89581ZM6.89581 24.854C6.50846 24.854 6.19131 24.7275 5.94436 24.4746C5.69825 24.2216 5.5752 23.8967 5.5752 23.4999C5.5752 23.1032 5.69825 22.7783 5.94436 22.5253C6.19131 22.2723 6.50846 22.1459 6.89581 22.1459H41.2546C41.6419 22.1459 41.9591 22.2723 42.206 22.5253C42.4521 22.7783 42.5752 23.1032 42.5752 23.4999C42.5752 23.8967 42.4521 24.2216 42.206 24.4746C41.9591 24.7275 41.6419 24.854 41.2546 24.854H6.89581ZM6.89581 14.0239C6.50846 14.0239 6.19131 13.8888 5.94436 13.6185C5.69825 13.3473 5.5752 13.0315 5.5752 12.6711C5.5752 12.2735 5.69825 11.9486 5.94436 11.6965C6.19131 11.4435 6.50846 11.317 6.89581 11.317H41.2546C41.6419 11.317 41.9591 11.4435 42.206 11.6965C42.4521 11.9486 42.5752 12.2735 42.5752 12.6711C42.5752 13.0679 42.4521 13.3928 42.206 13.6457C41.9591 13.8978 41.6419 14.0239 41.2546 14.0239H6.89581Z"/>
</svg>
