<svg width="26" height="25" viewBox="0 0 26 25" fill="currentColor" xmlns="http://www.w3.org/2000/svg">
<path d="M24.042 5.22168C23.1924 5.59766 22.2842 5.85156 21.3271 5.96875C22.3037 5.38281 23.0557 4.45508 23.4072 3.35156C22.4941 3.89355 21.4834 4.28906 20.4043 4.49902C19.54 3.57617 18.3096 3 16.9521 3C14.3398 3 12.2256 5.11914 12.2256 7.73144C12.2256 8.10254 12.2646 8.46387 12.3477 8.81055C8.41699 8.61523 4.93066 6.73047 2.60156 3.86426C2.19629 4.5625 1.96191 5.37793 1.96191 6.24219C1.96191 7.88281 2.79688 9.33301 4.06641 10.1826C3.29004 10.1631 2.55762 9.94824 1.92285 9.5918C1.92285 9.61133 1.92285 9.63086 1.92285 9.65039C1.92285 11.9453 3.55371 13.8545 5.7168 14.2891C5.32129 14.3965 4.90137 14.4551 4.47168 14.4551C4.16895 14.4551 3.87109 14.4258 3.58301 14.3672C4.18359 16.2471 5.93164 17.6143 8.00195 17.6533C6.38574 18.9229 4.34473 19.6797 2.12793 19.6797C1.74707 19.6797 1.37109 19.6553 1 19.6113C3.08984 20.9688 5.57519 21.75 8.24121 21.75C16.9424 21.75 21.6982 14.5381 21.6982 8.2832C21.6982 8.07812 21.6934 7.87305 21.6836 7.67285C22.6064 7.00391 23.4072 6.16895 24.042 5.22168Z"/>
</svg>
